/* XPM */
static char *_e17727587a14fb2941b1c8544d8a4admSOdL0HZzpjWTOkO[] = {
/* columns rows colors chars-per-pixel */
"64 64 46 1 ",
"  c #43A0BE",
". c #259FCC",
"X c #349EC3",
"o c #25A0CF",
"O c #2AA2CF",
"+ c #25A3D5",
"@ c #2CA4D4",
"# c #26A6DC",
"$ c #29A7DB",
"% c #26A8DF",
"& c #2BA8DE",
"* c #33A5D2",
"= c #3AA7D2",
"- c #36A8D7",
"; c #3EAAD6",
": c #34A9DB",
"> c #3CABDB",
", c #26A7E0",
"< c #26A9E3",
"1 c #2BABE4",
"2 c #26ADEB",
"3 c #2BAEEA",
"4 c #34ADE3",
"5 c #3AAEE1",
"6 c #32AFE8",
"7 c #2EB0ED",
"8 c #3CB1E7",
"9 c #33B1EC",
"0 c #3CB3ED",
"q c #44A7CC",
"w c #48A6C8",
"e c #48A9CF",
"r c #43ABD5",
"t c #48ABD2",
"y c #44AEDC",
"u c #48AEDB",
"i c #49B0DD",
"p c #42AFE0",
"a c #44B0E1",
"s c #4EB5E4",
"d c #43B6ED",
"f c #4BB7EB",
"g c #49B8EF",
"h c #54B7E5",
"j c #52BAEF",
"k c #68C0F0",
/* pixels */
"*rraaaaayryaaaaarqrppppppppp>=qr>5y==;555==-=:-X*:4X*41:@O@1&$,$",
"ykhhjjjjjjssgggggdppaddd00000095>-4664:466141&31.432@#222<,,2222",
"rj2$#2222222##<2222<#+<2222222222<<++<<,##2,$<+<<o#22++22<,,,222",
"th22<#222<2222#+<22222++,22222222222<#+,2,+,,,2#<<o#22++<2<,#<22",
"ui<22<+22<<22222<+#,2222#++<22222222222#+,2,##,<##<o#22#o<22###<",
"wf#<22<+<22<222222<#+#<22<#++<2222222222<##<<#++2##<o#22#.<2<#,+",
"ei1#<222+%22<<2222222$++,<22<#++<<22222222,+<2<#<2<+<.,22<o#21#,",
"ii+2#<222#+<2,,22<+#+,<<#o+,<2<<#++<2222222<+#22222<+<o<22<o+22#",
"ug++2%<222<+<2<<<<+2<+++,2<+o+<222<#+#<222222,+<2222<##O<222+o<2",
"ug2++2%<222<+%22<##+<22,++,22#+o#<222,+#,22222<+<2222<+++2222#.#",
"ug22+#2<<2222<+<22$###<<,#++<222#++,222<++,2222<,,22222#++2222<o",
"yg222++2<#2222<+#22<#+o#<<##+o#<22,++,2221##<2222#+2222<++#22222",
"td<222+%2<$22222#+<22<#++#,$,,$+#<22,++,222<,#,<22<+#222<++#2222",
"u8<2222+%2<+<22222+#222<#+++++#2,+,222<#+#222<##<222#+,22<++<222",
"ud,<2222+%22+%22222#+#<222<++#o<22,#<222<#o+<222,+<222,+#<+<+<22",
"ud2<<2222%+22<+<22222#+#<222<+<2222<##<2222#++<22<##222<<++<2+22",
"y022<<2222<+<2<#<222222<++<222<+,<222<##<222<<o+,22<+#<222222<+2",
"r0222<<2222<+<22##22222222#++<222,#,<22<##22222<++,22<#,222222<+",
"u0<222<%2222<++222+<22222222<#++#<2<##+##+2222222,+o<22,#<22222<",
"u0<<222<#22222#+<22#+22222222222$#++,<<<<2222222222<+O,2<,#<2222",
"y02<<2222<<2222<o#22<+#22222222222<<<#+#<<22222222222<#+<2<#<222",
"y822<<2222<%22222++222<+#222222<<<<22222<###<1222222222<+#<2<#<2",
"q4,<2<<2222<<22222<o<222+++222#+<<<<#<122222<,$,<22222222#+<22,#",
" =<<<2<<2222<+<2222<++2222<+#12<#<222<#+###<<2<,,,#,<22222<++<2<",
"r=o%<,22%<2222#<22222<+<22222++#<<,,<22222<<<<<,<+#$#<#<<222<+$2",
"y9+o$<,<<<<2222<<22222<+#222222<++#,,,<$,<222222222,++<<,,$<22<+",
"y92+o+<<<2<%2222<#<22222,+22222222<####<<,,,,<<2222222$+#,2,#<2<",
";422<++<<22<#<2222#<222222+#22222222<<#+##<22<<,<<222222,##<2<,<",
"y4%<2<++<<<22%#<2222#<22222<+<22222222222,++#<222<#<222222,##222",
";9<%<2<++<<%222#<2222<#<22222+$2222222222222<#+#<22<$<222222<+#2",
";4%2<<2<++<<%222<#,2222<,22222<+222222222<<<222$++<22,#,222222<+",
";9<%<<<<2%+<<%2222,$<2222$<<2222##222222+#<###2222++,22,#<222222",
">6<2<%%<<<%+2<#22222+<2222<#<2222<##2222##222<#+<222#+<22#+<2222",
">7222<<%<#$#+2<#222221+<2222<#<2222,#,222<<2222<<++<22<+#22#+<22",
";6222<<2<+#+<#2<<222222<#22222<<2222<#+<22#<2222222$#+<2,#$2<+#1",
">3<2222<22<+<<#2<#222222<#<2222<#<2222,#+22<#22222222<#+#<<+<2<#",
">7<<2222<<22<###2<<2222222%#22222,,22222#+<2<+122222<#22##,<<+<2",
">722<22222<222#<22<#2222222<+<2222<$222222++22#+222<+#+#22,#<2<+",
":7222<<<222<<2222222<22222222%<22222,,22222<+<2<+#22+12<#,22+<22",
":72222<<<2222<<22222<222222222<212222<,<2222<+#22<+<2+<21#+22,#2",
">1<222222#<<222<<22<2<2222222222##22222#<22222++222##<+<22<+,2<#",
"-7<,222222<#<<2222<2<222222222222<+<2222<#22222<+,22<+#++222$#22",
"-122<22222222<+<<222222222222222222<$2222<#<2222,+,222<+#+222<+<",
":1,22<<222222221#<<222222222222222222+<2222<<22221+,2222###<<#<#",
"-2<%<<2<<222222222##<22222222222222222<<2222<<22222+#2222<###++2",
":2<2<<<<<<<<22222222<#<22222222222222222<2222<<<2222$+2222#<<++#",
"@12<22<#<22<<<22222222<#<222222222222222<#22222%<2222<+2222#<<++",
"@1<2<<22<#<22<<#<2222222<<<22222222222222<#22222<<2222<+2222#<1+",
"@<<<2<<<22<<<222<<#<222222<<<2222222222222<<22222<<<222<+2222+<2",
"@1%%<<22212<<%<2222<%<222222<<<222222222222<<222222<<2222+<222#<",
"@11<##<<<<<22<<%<2222<%<<22222<<<22222222222<#222222<<2222$#222+",
"+<<<<<<#<<<<<<22<<<<222<<%<22222<<<2222222222<<2222222<<222<#222",
"O12#<<<<<#<<2<<222<<<<2222<#<222222<%<222222222<2222222<<<22<+22",
"+%<2<<<<<<<<<22222222<#<2222<#<<22222<<<2222222<<222#<<22<<222$,",
"o<#<22<<<<<<%%<22222222<#<<222<<%<2222<<<<222222<<22#<##22<<222<",
"+#<<<##<<#<<<<%%<22222222<<%<2222<%<22222<<222222<<22#2<+<22<<22",
"+##2<+%<<#<#<2<<%+<<2222272<<#<2222<#<22222<#<2222<<2<%22+<22<<2",
"+%%#2<%<22<<%#<2<<<$#<<2222222<%<<222%#222222%#2222<<2<<22#<222<",
".+%%$<%<<22<<%#<22<<<#%%,<222222<<%<22<#<222221#<222<<2<122<+222",
".<#%<%<#<<2<%%<+#<222<<<<<<<<222222%<222<#<22222<#222<22<<222#<2",
".<<%%<%<%<2<#<<<%+%<22222<<<<%<222222<<222#<222222#<22<22<<222#<",
"+#<<<<<<<<<<<<22<<<%<22222<<22<%<22222<%<22<%<22222<<22%222<222<",
"+<<2<<<2<<<<<<<<%<<<%%<22222<<22<%<22222<<222<<22222<<22<<22<222",
"#<%<2<<<<%<%22<%++<<<<%<222222<<22<<<22222<<222<22222<%22%222222"
};
