/* XPM */
static char *aae7a11122034846f1bb2598575163a31WeQwgVPqL5vPzfi[] = {
/* columns rows colors chars-per-pixel */
"64 64 69 1 ",
"  c #00A7BC",
". c #01AABE",
"X c #07ACC0",
"o c #0BAEC1",
"O c #14B1C3",
"+ c #1CB3C5",
"@ c #22B5C7",
"# c #26B7C8",
"$ c #28B7C8",
"% c #2BB8C9",
"& c #34BBCB",
"* c #3DBECE",
"= c #40BFCE",
"- c #43C0CF",
"; c #46C1D0",
": c #4BC3D1",
"> c #53C6D3",
", c #58C7D4",
"< c #5DC9D6",
"1 c #62CBD7",
"2 c #66CCD8",
"3 c #6BCED9",
"4 c #70CFDB",
"5 c #73D0DB",
"6 c #7CD3DE",
"7 c #81D5DF",
"8 c #85D6E0",
"9 c #8CD9E2",
"0 c #93DBE4",
"q c #9CDEE6",
"w c #A0DFE7",
"e c #A2E0E7",
"r c #A6E1E8",
"t c #ABE3EA",
"y c #B1E5EB",
"u c #B3E6EC",
"i c #B6E7EC",
"p c #B8E7ED",
"a c #B9E8ED",
"s c #BEE9EF",
"d c #C1EAEF",
"f c #C2EBEF",
"g c #C3EBF0",
"h c #C6ECF0",
"j c #C7ECF1",
"k c #CAEDF2",
"l c #CDEEF2",
"z c #CFEFF3",
"x c #D0EFF3",
"c c #D2F0F3",
"v c #D2F0F4",
"b c #D7F2F5",
"n c #DBF3F6",
"m c #DFF4F7",
"M c #E1F5F7",
"N c #E2F5F8",
"B c #E4F6F8",
"V c #E6F7F9",
"C c #E8F7F9",
"Z c #E9F8F9",
"A c #EDF9FB",
"S c #F2FBFC",
"D c #F3FBFC",
"F c #F4FBFC",
"G c #F5FCFD",
"H c #F7FCFD",
"J c #F8FDFD",
"K c #F9FDFD",
"L c white",
/* pixels */
"LLLLLLLLLLLLLLLLLLLLLLLLLLLLLLLLLLLLLLLLLLLLLLLLLLLLLLLLLLLLLLLL",
"LLLLLLLLLLLLLLLLLLLLLLLLLLLLLLLLLLLLLLLLLLLLLLLLLLLLLLLLLLLLLLLL",
"LLLLLLLLLLLLLLLLLLLLLLLLLLLLLLLLLLLLLLLLLLLLLLLLLLLLLLLLLLLLLLLL",
"LLLLLLLLLLLLLLLLLLLLLLLLLLLLLLLLLLLLLLLLLLLLLLLLLLLLLLLLLLLLLLLL",
"LLLLLLLLLLLLLLLLLLLLLLLLLLLLLLLLLLLLLLLLLLLLLLLLLLLLLLLLLLLLLLLL",
"LLLLLLLLLLLLLLLLLLLLLLLLLLLLLLLLLLLLLLLLLLLLLLLLLLLLLLLLLLLLLLLL",
"LLLLLLLLLLLLLLLLLLLLLLLLLLLLLLLLLLLLLLLLLLLLLLLLLLLLLLLLLLLLLLLL",
"LLLLLLLLLLLLLLLLLLLLLLLLLLLLLLLLLLLLLLLLLLLLLLLLLLLLLLLLLLLLLLLL",
"LLLLLLLLLLLLLLLLLLLLLLLLLLLLLLLLLLLLLLLLLLLLLLLLLLLLLLLLLLLLLLLL",
"LLLLLLLLLLLLLLLLLLLLLLLLLLLLLLLLLLLLLLLLLLLLLLLLLLLLLLLLLLLLLLLL",
"LLLLLLLLLLLLLLLLLLLLLLLLLLLLLLLLLLLLLLLLLLLLLLLLLLLLLLLLLLLLLLLL",
"LLLLLLLLLLLLLLLLLLLLLLLLLLLLLLLLLLLLLLLLLLLLLLLLLLLLLLLLLLLLLLLL",
"LLLLLLLLLLLLLLLLLLLLLLLLLLLLLSmkhnALLLLLLLLLLLLLLLLLLLLLLLLLLLLL",
"LLLLLLLLLLLLLLLLLLLLLLLLLLLf5&++%;1tAJLLLLLLLLLLLLLLLLLLLLLLLLLL",
"LLLLLLLLLLLLLLLLLLLLLLLLLLB969etttb0%1nLLLLLLLLLLLLLLLLLLLLLLLLL",
"LLLLLLLLLLLLLLLLLLLLLLLLmq&@%==%+X;i*.&kLLLLLLLLLLLLLLLLLLLLLLLL",
"LLLLLLLLLLLLLLLLLLLLLLLb5+... . ...3h+.%bLLLLLLLLLLLLLLLLLLLLLLL",
"LLLLLLLLLLLLLLLLLLLLLLA66...... ...#mu12bLLLLLLLLLLLLLLLLLLLLLLL",
"LLLLLLLLLLLLLLLLLLLLLLeerO#:>-&&;2qhSCchqyLLLLLLLLLLLLLLLLLLLLLL",
"LLLLLLLLLLLLLLLLLLLLLLlklkMCMZZAAmi7>%OX.*SLLLLLLLLLLLLLLLLLLLLL",
"LLLLLLLLLLLLLLLLLLLLLl>O4Lt&%&>>*+.......&ALLLLLLLLLLLLLLLLLLLLL",
"LLLLLLLLLLLLLLLLLLLLL9.<MLt.     ........5CLLLLLLLLLLLLLLLLLLLLL",
"LLLLLLLLLLLLLLLLLLLLL5=AlfSr*@@&&+......o99LLLLLLLLLLLLLLLLLLLLL",
"LLLLLLLLLLLLLLLLLLLLLew0Oo>mFMBSFn4+...+0q3LLLLLLLLLLLLLLLLLLLLL",
"LLLLLLLLLLLLLLLLLLLLLZb@...:Sf250lGn07ebn&5LLLLLLLLLLLLLLLLLLLLL",
"LLLLLLLLLLLLLLLLLLLLLh>.....r2...O>sCALB-.9LLLLLLLLLLLLLLLLLLLLL",
"LLLLLLLLLLLLLLLLLLLLLfo.....4s@....o#%at..pLLLLLLLLLLLLLLLLLLLLL",
"LLLLLLLLLLLLLLLLLLLLLS:.....<Lc2+.....00 &ALLLLLLLLLLLLLLLLLLLLL",
"LLLLLLLLLLLLLLLLLLLLLLb7+...7Jsak3....y2.0LLLLLLLLLLLLLLLLLLLLLL",
"LLLLLLLLLLLLLLLLLLLLLLLLr:+;muXX<B3..Oa%:SLLLLLLLLLLLLLLLLLLLLLL",
"LLLLLLLLLLLLLLLLLLLLLLLF12pnJw...6ko.&q*bLLLLLLLLLLLLLLLLLLLLLLL",
"LLLLLLLLLLLLLLLLLLLLLLLLg%+%>f%..+h2O6tnLLLLLLLLLLLLLLLLLLLLLLLL",
"LLLLLLLLLLLLLLLLLLLLLLLLLn1$5nw*+O<kqiALLLLLLLLLLLLLLLLLLLLLLLLL",
"LLLLLLLLLLLLLLLLLLLLLLLLLLJbyq2>><3qcGLLLLLLLLLLLLLLLLLLLLLLLLLL",
"LLLLLLLLLLLLLLLLLLLLLLLLLLLLLSSmlcZLLLLLLLLLLLLLLLLLLLLLLLLLLLLL",
"LLLLLLLLLLLLLLLLLLLLLLLLLLLLLLLLLLLLLLLLLLLLLLLLLLLLLLLLLLLLLLLL",
"LLLLLLLLLLLLLLLLLLLLLLLLLLLLLLLLLLLLLLLLLLLLLLLLLLLLLLLLLLLLLLLL",
"LLLLLLLLLLLLLLLLLLLLLLLLLLLLLLLLLLLLLLLLLLLLLLLLLLLLLLLLLLLLLLLL",
"LLLLLLLLLLLLLLLLLLLLLLLLLLLLLLLLLLLLLLLLLLLLLLLLLLLLLLLLLLLLLLLL",
"LLLLm76666rBLLy6kLLv066669Ar6bk666666xLLB9yJLLLLq6nB9hLLLy6nLLLL",
"LLLLp..oXX.&kL1 qLq+.XXX.%M>.yqX...XXtLF> oyLLLJ;.pq.+rLL1.sLLLL",
"LLLLa.&hkf3.-G1.qn+X8ghkkkG>.tZhtO+ykZL7.+.&mLLJ:.p0..o9J2.aLLLL",
"LLLLs.;LLLB@On2 qu.:LLLS99Z>.tLLm+@CLLaO+t>.1GLJ:.p0.:@.5>.sLLLL",
"LLLLs.-SJGtO#B2.qhX%xJJn++B>.tLLnO@BLM&.63@.XqLJ:.i0.qf%.XXsLLLL",
"LLLLa.O-;*o.8L1 qJ2.+;;=.@M>.tLLbO@BG1 >t*&&.@lJ;.a0.qLl=.XaLLLL",
"LLLLf&###%;qGL6#rLA9*###$-B3%aLLm*-Cp&*bJSFA5#5S2%ke#tLLm,:MLLLL",
"LLLLJZZZZZGLLLSZGLLLGZZZZAJSZGLLLBALSCALLLLLFZZLSZFGZGLLLJSLLLLL",
"LLLLLLLLLLLLLLLLLLLLLLLLLLLLLLLLLLLLLLLLLLLLLLLLLLLLLLLLLLLLLLLL",
"LLLLLLLLLLLLLLLLLLLLLLLLLLLLLLLLLLLLLLLLLLLLLLLLLLLLLLLLLLLLLLLL",
"LLLLLLLLLLLLLLLLLLLLLLLLLLLLLLLLLLLLLLLLLLLLLLLLLLLLLLLLLLLLLLLL",
"LLLLLLLLLLLLLLLLLLLLLLLLLLLLLLLLLLLLLLLLLLLLLLLLLLLLLLLLLLLLLLLL",
"LLLLLLLLLLLLLLLLLLLLLLLLLLLLLLLLLLLLLLLLLLLLLLLLLLLLLLLLLLLLLLLL",
"LLLLLLLLLLLLLLLLLLLLLLLLLLLLLLLLLLLLLLLLLLLLLLLLLLLLLLLLLLLLLLLL",
"LLLLLLLLLLLLLLLLLLLLLLLLLLLLLLLLLLLLLLLLLLLLLLLLLLLLLLLLLLLLLLLL",
"LLLLLLLLLLLLLLLLLLLLLLLLLLLLLLLLLLLLLLLLLLLLLLLLLLLLLLLLLLLLLLLL",
"LLLLLLLLLLLLLLLLLLLLLLLLLLLLLLLLLLLLLLLLLLLLLLLLLLLLLLLLLLLLLLLL",
"LLLLLLLLLLLLLLLLLLLLLLLLLLLLLLLLLLLLLLLLLLLLLLLLLLLLLLLLLLLLLLLL",
"LLLLLLLLLLLLLLLLLLLLLLLLLLLLLLLLLLLLLLLLLLLLLLLLLLLLLLLLLLLLLLLL",
"LLLLLLLLLLLLLLLLLLLLLLLLLLLLLLLLLLLLLLLLLLLLLLLLLLLLLLLLLLLLLLLL",
"LLLLLLLLLLLLLLLLLLLLLLLLLLLLLLLLLLLLLLLLLLLLLLLLLLLLLLLLLLLLLLLL",
"LLLLLLLLLLLLLLLLLLLLLLLLLLLLLLLLLLLLLLLLLLLLLLLLLLLLLLLLLLLLLLLL",
"LLLLLLLLLLLLLLLLLLLLLLLLLLLLLLLLLLLLLLLLLLLLLLLLLLLLLLLLLLLLLLLL",
"LLLLLLLLLLLLLLLLLLLLLLLLLLLLLLLLLLLLLLLLLLLLLLLLLLLLLLLLLLLLLLLL",
"LLLLLLLLLLLLLLLLLLLLLLLLLLLLLLLLLLLLLLLLLLLLLLLLLLLLLLLLLLLLLLLL"
};
