/* XPM */
static char *result[] = {
/* columns rows colors chars-per-pixel */
"64 64 39 1 ",
"  c #668317",
". c #668619",
"X c #678B1B",
"o c #67931C",
"O c #69921E",
"+ c #72872A",
"@ c #738E2C",
"# c #6B9521",
"$ c #6C9922",
"% c #74912D",
"& c #6BA525",
"* c #6BAB27",
"= c #6FA728",
"- c #6CAE28",
"; c #70A729",
": c #73AB2D",
"> c #6DB32A",
", c #71B52E",
"< c #7CA532",
"1 c #77AE31",
"2 c #7BAE33",
"3 c #75B531",
"4 c #7BB436",
"5 c #75B832",
"6 c #7AB936",
"7 c #7DBB39",
"8 c #81AC37",
"9 c #82AD39",
"0 c #81B33A",
"q c #82BB3D",
"w c #86BE41",
"e c #8ABD44",
"r c #91BD48",
"t c #A0B26F",
"y c #A1B170",
"u c #A9BA7D",
"i c #8CC147",
"p c #8FC048",
"a c #91C24A",
/* pixels */
"%O#$$$$$$#$$$$$$o$$$$$$$$$$$oo$$$$oo#$$$o$$o$$X#$oO$o&o#OOoO&OO ",
"@2araaaaareipiipiwqqpawwwwwwwwq00qqq046q5544164-153-:55>>:>>>>>X",
"@0i3,,53555,,,,5>>>>-:>,,,,>>>,>>-**->*-->---*>>&*,>**>>>-->>>>X",
"@9q>-->>>>>>---->>>>>-**>>>>>>>>>>>>**->----->*->**>>*->>--*>>>X",
"+00>>>->>>>>>>>>>*->>>>--*->>>>>>>>>>>--->---->-*>&->>**>>--*>>X",
"@8q->>>-->>->>>>>>>**->>>>**->>>>>>>>>>>*->>***>-*-&->>-*>>>**&X",
"@80-->>>-->>->>>>>>>>-**->>>***->>>>>,>>>>*->-*->>*>*->>-&->--& ",
"@00>>->>>>*>>>>>>>>**>>-***>>>--->>>>>>>>>--->>>>>>*-&>>>>&->,&X",
"%07*->->>>>-->>->>*>***-->***->>>>-*-->>>>>>-->>>>>>**&>>>>**>-X",
"%07>*->->>>>>*>>>***>>>***->>***>>>>--*->>>>>>*-5>>>>***>>>>*&*X",
"%07>-&->->>>>>*->>>-**>>-***->>-**->>>>--->,>>>->>>>>>**->>>>-& ",
"%06>>>*>>-->>>>-*>>>****->-***->>>***>>>>--->>>>>->>>>>-*->>>>*X",
"%86>>>>*>>-->>>>>-->>>****-----**>>>-**>>>>--->>>>*->>>>*&->>>>o",
"%06>>>>>*>>-->>>>>**>>>>-*****->-*>>>>>*->>>>--->>>-*->>>**->>-X",
"%06->>>>>*->-*>>>>>>**>>>>-****->>-*>>>>--*->>>-*->>>-*->*-*->-o",
"%06>>>>>>>*>>>->>>>>>-**>>>>--*>>>>>*->>>>--**>>>-*>>>>-**>>*>-X",
"%86>>>>>>>>>->>-->>>>>>>>>-->>>--->>>-*->>>>>-*->>>-*>>>>>>>>--X",
"%06>>>-->>>>-*>>--->>>>>>>>-*->>>>-->>-->>>>>>>>**>>>-->>>>>>>*X",
"%03>>>>>->>>>>*->>-->>>,>>>>>>**-->------->>>>>>>-&->>>-->>>>>- ",
"%26->>>>>>>>>>>*->>>>>>,>>>>>>>>>-*--->>>>>>>>>>>>>-&*>>>*>>>>>X",
"%85>>>>>>>>>>>>>-*>>>>*->>>>>>>>>>>>------>>>>>>>>>>>>*->>-->>>X",
"@05>>>>>>>>>>>>>>-*->>>-*->>>>>---->>>>>>---->>>>>>>>>>>*->>-->X",
"+<5->>>->>>>>->>>>>-*>>>>--->>-->>>----->>>>>--->>>>>>>>>**>>>&X",
"@<:--->>>>>>>>->>>>>-*->>>---->--->>>>>---->-------->>>>>>-*->-.",
"%2,&*-->>->>>>>>>>>>>>>*>>>>>>---->--->>>>>>>>>>>------->>>>**-X",
"@25*&*>->>-->>>>>->>>>>>*->>>>>>-**>->---->>>>>>>>>>------->>>* ",
"@25,>**->>>>->>>>>>>>>>>>*>>>>>>>>>>-**-->---->>>>>>>>>**>>----X",
"%2,->-**-->>>->>>>>->>>>>>>*>>>>>>>>>>>-*-->>>>-->>>>>>>>**>>>*X",
"@25-->-**->->>>->>>>>-->>>>>>->>5>>>>>>>>>>-*->>>>-->>>>>>>>->>X",
"@2,>-->>**-->>>>>->>>>>>>>>>>-->>>>>>>>>>>>>>-**->>>-->>>>>>--*X",
"@2,->>->>-*->->>>>-->>>>>->>>>>>>>>>>>>>---->>>>--->>>-->>>>>>* ",
"%2,>>-->->**>-->>>>>>>>>>>-->>>>>>>>>>>>&>>--*->>>--->>-->>>>>>X",
"@3>>->>>->--*>>->>>>>>>>>>>>->>>>>>*>>>>-->>>>>>*>->>**>>>*->>>o",
"%3,>>>>>--**-*>>>>>>>>>>>>>>>>>>>>>>**>>>>->>>>>>>***>>**>>**>*X",
"%1>>>>>>>>-*->*>>>>>>>>>>>>>>>>>>>>>>>**>>-->>>>>>>>>**>>**>>**X",
"%1>>>>>>>>>>>*>*>>>>>>>>>>->>>>>>>>>>>>>*->>>>>>>>>>*>>>**>-->* ",
"%15>>>>>>>>>>>>*>>>>>>>>>>>>>>>>>>*->>>>>>->>*->>>>****>>*->>**X",
"%15>>>>>>>>>>>>>>>>>>>>>>>>>>>>>>>>>>>>>>>>*->>*>>>>>>>*>>>*>>*X",
"%1>>>>>>->>>>>>>>>>>>>>>>>>>>>>>>>>>>>>>>>>>**>>>>*>*>>>*->>-->X",
"%1>>>>>>>-->>>>>>>>>>>>>>>>>>>>>>>>>>>>->>>>>-*>>>*****>>-*>>**X",
"%15>>>>>>>>>>>>>>>>>>>>>>>5>>>>5>>*>>>>>>>>>>>>-->>>****>>>*>>-X",
"@:>>->>>>>>>>*>>>>>>>>>>>>>>5>>>>>>->>>>>>>>>>>>*>>>>>-**>>>-**X",
"@:>->>>>>>>>>>>>>>>>>>>>>>>,>>>>>>>>>>>>>>>>>>>>>**>>>>>-*>>*>*X",
"%:>>-->>>>>>>>>>>>>*>>>>>>>>>>>>>>>>>>>>>>>>>>>>>>>*>>>>>**-***X",
"%:>>>>-->>->>>>>>>>>>>>>>>>>>>>>>>>>5>>>>>>>>>>>>>>>*>>>>---***X",
"%;>>>>>>*>>>>>>>>>>>>>>-->>>,>>>>>>>>>>>>>>>>>>>>>>>>*>>>>->-** ",
"%;>->>>>>>->>>>>>>>>>>>>>>>>>>>>>>>>5>>>>>>>>>>>>>>>>>*>>>>-->& ",
"%;->->>->>>->>>>>>>>>>>>>>>>>>>>>>>>>>>>>>>->>>>>>>>>>>>>>>>*>- ",
"%=---->>>>>>>-->>>>>>>>>>>>>>>->>>>>>>>>>>>>>>>>>>>>>>>>-->>>>-o",
"@=>-->--->>->>>-->>>>>->>>>>>>>>>>>>>>>>>>>>->>>>>>>>>>>>>*>>>* ",
"@=>->-->-->>>->>>>*>>>>>>->>>>>>>>>>,>>>5>>>>>>>>>>>>>->>>>*>>-X",
"@&>>->--->-->>>>>>>>>*>>>>>>>>>>>>>>>>>>>>>>>>>>>>>>>>>->>>>---X",
"%&->>>>>->->->>>>>>>>>>>->>>>>*>>>>>>>>->>>>>>>>>>>>-->>>->>>>*X",
"%&>-->-->*>>--*>>>>>>>>>>*>>>>>>>->>>>>>>>>>>>>>>>>>->-->>>>>>*X",
"@$>>>------->>>**>>>>>>>>>>>->>>>>>>>>>>>>>>>>>>>>>>->>-->>>->-X",
"+&-->--->>>*-->>>>*>>>>>>>>>>>*>>>>>>>>>>>>>>>>>>>>>>>>>-->>>--X",
"+&--->>-->>>>*->>>>>*-*>>>>>>>>>-->>>>->>>>>>>>>>>>>>>->>>-->>-X",
"@&*--->-->>>---**>>>>>->>->>>>>>>>>>>>>-->>>>>>>>>>>>>>>>>>>>>-X",
"@&>-->->->>>*>>**->>>>>>-->->>>>>>>>>->>>->>,>>>>->>>->>>>>>---X",
"@&->---->*->>->>->**>>>>>>>>>>->>>>>>>>>>>->>>>>>>->>>->>>>>>--X",
"@**>>>->->-->>>>--->-->>>>>>>>>>-->>>>>>>>>>>>>>>>>>>>>->>>>>>>X",
"@*>->->->->*>->-**-->>>>>>,>>>>>>>>>>>>>>>>>>>>>>>>>>>>>>>>>>>>o",
"@Xoooooooooooooo#oXXXooooooooooooooooooooooooo$oooooooooooooooo ",
"utttyytyyyttttttytttttttttttyyyyytttttttyytyytyttttttttttttttttt"
};
