/* XPM */
static char *_8f22d52225543b3efe3e6163a410d091oHGzCXCGZoTvyGg[] = {
/* columns rows colors chars-per-pixel */
"64 64 67 1 ",
"  c #89465D",
". c #884661",
"X c #8A4A65",
"o c #8B4C6B",
"O c #93576B",
"+ c #93586D",
"@ c #8C4E71",
"# c #8A4F78",
"$ c #8C5074",
"% c #8B517D",
"& c #8C5484",
"* c #8D5689",
"= c #8D588C",
"- c #8F5C95",
"; c #8F5D99",
": c #915E95",
"> c #905E9D",
", c #966397",
"< c #92619D",
"1 c #98669C",
"2 c #9C6B9F",
"3 c #AA7987",
"4 c #AA7B8B",
"5 c #A06A92",
"6 c #A16F9D",
"7 c #A7749D",
"8 c #905FA0",
"9 c #9161A4",
"0 c #9867A2",
"q c #9768A5",
"w c #9B6AA3",
"e c #9C6BA2",
"r c #9D6CA0",
"t c #9A6AA6",
"y c #9C6CA6",
"u c #9163A8",
"i c #9465A8",
"p c #9566A8",
"a c #9668A9",
"s c #9769A9",
"d c #996AA8",
"f c #9B6DAB",
"g c #9D6EA8",
"h c #9F70A5",
"j c #A06FA1",
"k c #A06EA2",
"l c #A271A5",
"z c #A372A4",
"x c #A070A7",
"c c #A674A4",
"v c #A777A5",
"b c #A876A2",
"n c #A272A8",
"m c #A374AB",
"M c #A474A8",
"N c #A677AA",
"B c #A677AD",
"V c #A778AA",
"C c #A879AB",
"Z c #AB7BAA",
"A c #AA7BAB",
"S c #A878AD",
"D c #A97BAF",
"F c #A577B0",
"G c #AB7CB0",
"H c #AB7DB0",
"J c #B28897",
/* pixels */
".oo$$$$$@@@#$#@@oo##@@#@$@@ooo@$$@o@##$$o@o@#oX@$oo@$$ooo#$@$o.4",
"olAAHHHHHBAAAHGAABbNBSBBBBBmMjjjrnkj6yglyey11y,,wq1<9qq><<9999&4",
"XABwwffffadq0paappq<<9q9upuppuu9>>><9>;889>8>>9:-89>-9u8>>>99u*4",
"Xbf9;;99999998->8u999::>9u99u9u8u9>>:>8>>>8>9>>9::99>-8u9>>>9u*4",
"Xvw998;99999999;>>>9uu8;:>8u9uuu99u998:>88>>>88>8;-99>->99>>>9*4",
".vd;998;899>9uuuu8>:>89u8:->88u8uu9u998>;888;:88;8--99>->98>>>*4",
"X7w;8u99;>u9899u9999>;;>88u8>:>899u9u9uuu:;88>:88;>;-998::>9>>%4",
"ov19>>9u9>;99;8999>>888;:;8898:;:>8999u98u8:88u8u9;>-;u98::99>%4",
"oA0;9>>999>;9u9>88:8;;;>88;-;8u88>:;88u8u8u8;88uuuu8>->88u:-88*4",
"oBd;-9>>9999-;99>>>>988;:888;;:>8u88>>>8uuuu8:>88u8u>;:8uuu8=>*4",
"oNd9;-99>9999>-9u8>>;888>--:8u88;;8uu88::89u9u8;8uu88>;-88u88:#4",
"oNdu9;;99>9999>-8u88;-:888>;;;8888;:8u8u8>:8u998:8uu88>::8uuu8#4",
"Xvp9u9>-98>8uu99:>8888;:;>>>>>-;88u8:;>88u8:;89uu8:8u8u>;;8u8u=4",
"ovq99u9>>99>>9u9u8:8u888;--:;;8>:888u8;->uu98>>88u8>88u8;:>8uu=4",
"oNq;99u9>-98:>998u88>88u88;-:;:888:88uu8;->8u98;>88u88;88;>>u8=4",
"oBp9>99u9>;89>>9uuu88;>8u889>>89uu88;8uu8u;-;8u98>88888:-;8>88=4",
"XNpu8>8u9u9->98>>999999>:>88u88>>99u8>>89999>--9u98;>9uu99u9>>*4",
"olquu9>89999;>99>>999u9988:;88u88>>>998>>99u99>-:>u8>>89u9998>&4",
"ov98u9u>99999;;999>>999u8uu98:;>>99>>-;>->u99999>-:898>>899u9u&4",
"onq88u99>8u999>-899>>9u9u9u89u88;;->8>88999999u9998;;898>>8u99&4",
"ocp989u998>99u99-;8u8>>9u8uuuuu8u999>>:89999999uu9u9>:;8u8>8uu*4",
"Xc999>8uu99>999u8;;899>:88u98u8>>889u988>>>>99998u9uu9>:>u88>8=4",
" 6q899899u99>899uu>:>989>:88uu:>98>>>>999999>>>>89u989u8:-888>&4",
".5:8>89>8u999>89u998>>8uu8>;:89>>999<>>>>>>>>98>>>>89u9u98::99&4",
"ol:=><;9;89u9u>>8u9u98:89u998>:>>>>>9999999989>>>>>>:>>88u9>;8*4",
"on9-->98u8;9u9u8>8u9u98>>89uu988>-;>;8>>889999u9998;>>8>>88u8>&4",
"Xjp9;-;8899>89999>>99uu9>:8uu999999>-->989;;>899999u9>>;888>88&4",
"o6999>-;8899>>999u8>8u99u8>>99u9999999>-;;9998>>>99u9u99:;8u8>&4",
"Xh<>99>-;8>999>>99998>9999u>>>999uu99u9u9<;;>9999>>9999999>>99*4",
"o299>998-;9>>999>89999>>9u9u9>>9u99u99u9uuu9>;;>999>>9999998>>*4",
"oh<<9<;99;;9>99u9>>899u9>899998>>9999999>;;<999>->899>>999u998#4",
"or99>>888>;;9>;u9u9>>99u98>89999>;99uu9>;98>->9998;;>9>>>99u99=4",
"oj9999>>8>>:>9>9u99u8>89uu8>;99998>>99u9>8u998:>>8988>888;>99u*4",
"or99>99>>>:>:>9>8u99u8>>88pu9;999u9>:;999>8uu9u98>>888>:88>>>9*4",
"oe99999988>>>>>9>99u99u8>8u9989;99uu9>;898>89u99u9888:888>88>>&4",
"oy9999998998>8>>9>8u9u9uu8>8u999>>99998;>988>9u99u99888888>>88&4",
"oy998999u9899>>:999>9u899u8>89pu9>>999u98:88>>88u98::888>>99>>&4",
"oyu999999u989999999>98uuu9p8>>99999>89u9u8:;98>>8u8:88:89>>>99&4",
"oeu9999>999u9999u9999999999u98>8u9998>99uuu8:8u8:>8>>888>89>>u&4",
"oe99u999>>899998999u;999u9uuuu88>9u999>88uu88:8888>8>:uu>:898>&4",
"Xy999999998>>899999888u999u9u9uu8>>99u9>899999::uu88;>:8u9>>98&4",
"o199>9u9u9i98>>9999ui99u999u8u8p99>>999u8>9uu99>:8uu8:>:8998:8*4",
"o18899999u999u98>>999uu99u99u8u8u998>89u99>89uu98-888u>>>>98>>&4",
"o19>>99>8999u9999>>>89u9u9puuuuu9u9u8>89u99>899u88>8u8u8>>>:->&4",
"o09<8><99>99999uu9u8>>8u99u99u9u9u9u998>99u98>99uu8:>9uu8>8>->&4",
"X<99999>899>88i99u99i8>8999u99u9u9u99u98>99999>88uu8>>9998>8:;#4",
"X<999>998>8u88>889u99u998>99u99u99u9u99u9>9999988uu89>>9u98>8>#4",
"X<8>999>998>9uu98>88i9u999>88u9u9u9u9uu999>99uu9888u99>>9u8888&4",
"X<<;>9999999>>99u99>>99u9u998>999uu999u9999>9uu9u888u9u8>9u98>*4",
"X1988>>>9<8899<>899999>>99u999>>8999uu9u9999>99uuu998999>>8998&4",
"X>89888>>>9988998>889999>>899u998>899uu9u9999>999uu99>9999>>9u&4",
"X:98>888>>>89989999>>>9u99>889u9u98>89999u999989u9u999>>999>>8*4",
"X>;99>88889>>999u9u999>89uu98>8999u99>99u99u9u9>9u9>>>9988998>&4",
"o:9>998<8<>>8>>9999u9998>>89u98>>9u999>>89999u98899>8>>9998999&4",
"X->9>>>>88>998>>>999999u99>>89u99>>99uu99>8999u98998>98>99989u*4",
"X->>9>>>8>>>>99>>>>99999u9u9>>89999>>999998>9999988u8>99>999>9*4",
"X->>>9>8999<>>8998>>>><99999999>>9u99>899u998>99u989u8>99:8999&4",
"X:>>>>8>89998>>;>999>>>>889999999>>999>>899u998>999899<999>>9u*4",
"X->>>8>88898>>>>>>9u99998>>>999u999>8999>>999u98>999>9998998>9*4",
"X->88>8>>889>89>>>>>999999999>>99u9u9>9998>9u9u99>899>99999u9>&4",
"o;>988>988>99899>>9>>9999999<99>>9999u88999>>9u9998899>9999u99&4",
"o;88999<>8899<98><<89>>9999999999>99u9u989uu9899uuu989989u99uu=4",
"X&*&&=*&=*&&&***&%%&***&*=====***=***====**====*=====*****====#4",
"++++++++++O+O+++OOOOOO+OO+++++OOO+OOOO++OOOO+O+OOOOOOOOOOOOOOOOJ"
};
