/* XPM */
static char *a92ef65437e242d2eda39109b139153dJvC2QojyTV5eB5PS[] = {
/* columns rows colors chars-per-pixel */
"64 64 220 2 ",
"   c #010101",
".  c #0B0101",
"X  c #020901",
"o  c #0B0A03",
"O  c #03010A",
"+  c #0A030A",
"@  c #050A0C",
"#  c #0C0B0C",
"$  c #130000",
"%  c #1B0000",
"&  c #110E0B",
"*  c #15150D",
"=  c #060A11",
"-  c #100910",
";  c #131313",
":  c #1C1C1C",
">  c #181A15",
",  c #230000",
"<  c #2B0100",
"1  c #270C06",
"2  c #340100",
"3  c #3B0200",
"4  c #3D0B01",
"5  c #360800",
"6  c #361404",
"7  c #221E1F",
"8  c #1C261D",
"9  c #23241B",
"0  c #1E1E23",
"q  c #1A2522",
"w  c #242323",
"e  c #2A2B25",
"r  c #2C2D2D",
"t  c #262828",
"y  c #2A332C",
"u  c #2D2334",
"i  c #353535",
"p  c #393839",
"a  c #333432",
"s  c #420100",
"d  c #4C0200",
"f  c #4B0A00",
"g  c #530400",
"h  c #570902",
"j  c #481500",
"k  c #5B1C03",
"l  c #551701",
"z  c #640A00",
"x  c #6B0D00",
"c  c #7E0B00",
"v  c #6C1401",
"b  c #6B1D00",
"n  c #6B1807",
"m  c #721200",
"M  c #791400",
"N  c #751E06",
"B  c #661E10",
"V  c #741A11",
"C  c #4C210D",
"Z  c #552000",
"A  c #582512",
"S  c #6E2301",
"D  c #6C250A",
"F  c #632509",
"G  c #722403",
"H  c #73240D",
"J  c #7A2A09",
"K  c #6B2C17",
"L  c #742813",
"P  c #77341E",
"I  c #413D3E",
"U  c #3A423C",
"Y  c #3D4E3E",
"T  c #44403F",
"R  c #463A48",
"E  c #3E4645",
"W  c #444442",
"Q  c #45444D",
"!  c #4A4B4C",
"~  c #49514E",
"^  c #50524F",
"/  c #4B4851",
"(  c #524F52",
")  c #4D5152",
"_  c #525253",
"`  c #595959",
"'  c #5D635D",
"]  c #66625F",
"[  c #5D5B61",
"{  c #5B6268",
"}  c #6C6C6D",
"|  c #656667",
" . c #716D6E",
".. c #69736D",
"X. c #6D6C72",
"o. c #6F7074",
"O. c #747475",
"+. c #78747B",
"@. c #7D7C7C",
"#. c #73777A",
"$. c #746F73",
"%. c #871D00",
"&. c #851700",
"*. c #921D00",
"=. c #832401",
"-. c #8D2707",
";. c #982905",
":. c #9C3104",
">. c #95310B",
",. c #9A340C",
"<. c #833314",
"1. c #89361C",
"2. c #963516",
"3. c #862F1B",
"4. c #A82F04",
"5. c #AF330D",
"6. c #B43C0D",
"7. c #BA3D0E",
"8. c #A33818",
"9. c #BB3C13",
"0. c #B03A12",
"q. c #983A23",
"w. c #873422",
"e. c #A33C29",
"r. c #C33D0B",
"t. c #CE3C0B",
"y. c #CB3E17",
"u. c #EF3E12",
"i. c #92401A",
"p. c #BA400F",
"a. c #A84218",
"s. c #BC4617",
"d. c #9B4328",
"f. c #A94727",
"g. c #B54824",
"h. c #AC5128",
"j. c #BA532A",
"k. c #B54E33",
"l. c #B65535",
"z. c #AC4E32",
"x. c #DA460D",
"c. c #C74618",
"v. c #D44713",
"b. c #DC4D13",
"n. c #D14519",
"m. c #D54D1C",
"M. c #DB4C1B",
"N. c #DD4617",
"B. c #CD511E",
"V. c #DC531B",
"C. c #D5521A",
"Z. c #DB520E",
"A. c #E74506",
"S. c #E64C13",
"D. c #E34C1C",
"F. c #EB4F14",
"G. c #E2511C",
"H. c #E8521A",
"J. c #F24407",
"K. c #C54B25",
"L. c #DD4C24",
"P. c #DA4A26",
"I. c #CC5625",
"U. c #CC542B",
"Y. c #CD592B",
"T. c #C45627",
"R. c #DC5222",
"E. c #D4552B",
"W. c #D65828",
"Q. c #C75432",
"!. c #CC5531",
"~. c #CD5C32",
"^. c #D45633",
"/. c #D75832",
"(. c #E24D22",
"). c #E34C29",
"_. c #E55222",
"`. c #E75623",
"'. c #E15933",
"]. c #847F7C",
"[. c #7F847E",
"{. c #81877D",
"}. c #848484",
"|. c #8A8A8D",
" X c #888286",
".X c #92928E",
"XX c #8F8E93",
"oX c #8F9092",
"OX c #979996",
"+X c #A69D9E",
"@X c #9DA0A7",
"#X c #A8A7A7",
"$X c #AAB3A9",
"%X c #AFAAB4",
"&X c #B7AEB3",
"*X c #B4B6B4",
"=X c #B9BDBA",
"-X c #C3BAB8",
";X c #BDBBC0",
":X c #CFBFC0",
">X c #C6C7C7",
",X c #D4D6CA",
"<X c #D2CCD4",
"1X c #D9D7D7",
"2X c #CCD2C6",
"3X c #E6DFE4",
"4X c #DDE6E1",
"5X c #E4E6E7",
"6X c #F2EAEA",
"7X c #F4F5EC",
"8X c #F9F7EE",
"9X c #EFE8F0",
"0X c #ECF6F3",
"qX c #F4F3F4",
"wX c #FBFDF6",
"eX c #FCF6FE",
"rX c #F3FCFC",
"tX c #FDFEFE",
"yX c #F9F6F6",
"uX c #F1E9F8",
/* pixels */
"                                                                                                                                ",
"                                                                                                                                ",
"                                                                                                                                ",
"                                                                                                                                ",
"                                                                                                                                ",
"                                                                                                                                ",
"                                                                                                                                ",
"                                                                                                                                ",
"                                                                                                                                ",
"                                                                                                                                ",
"                                                                                                                                ",
"                                                                                                                                ",
"                                                                                                                                ",
"                                                                                                                                ",
"                                                                                                                                ",
"                                    O                                                                   O                       ",
"        O     X     .   +     X     O + .       O O O     X O   O O     O + .     O   +       X   X   .   O O                   ",
"        .     X     + . $ . .   . . . + .   X   . + .   X . .   + .   . . . . $ . . .       . . +   . . .   O O O   O   .     X ",
"X                 . + . $ % % % $ $ % . . X . . % % , % % $ . . . . $ % $ % % % $ $ X . . . $ % % $ , $ . . X O . . .   .       ",
"      .             . 6 K N G G D D b K 1 . 1 l G V V n D F j % % A F G S G G H F C % . , l L N V H b F l % .       O .         ",
"      . .     X X X $ K ^.H.S.Z.Z.G.D./.3 2 g.V.G.D.`.H.`.C.T.x s l.E._.S.H.S.Z.~.d.% < g.L.(.D.G.G.b.V.I.S $     O O O       X ",
"      .     .   X X % P !.x.A.A.Z.x.D.K.s L V.A.b.v.M.t.A.A.`.c d l.B.N.u.J.A.v.T.G , D ).u.D.n.m.b.x.u.C.>.%   X               ",
"  X         . O +   . , 4 z t.D.8.d s 3 3 e.L.c.h 5 s g *.B.^.v < 6 s -.(.D.v 2 6 1 , <.(.y.n 5 3 d c K./.-.$ o       .     O O ",
"            . + O + + . . 3 m.L.L % . $ s g.'.&.% . . % x U.k.d $ . % 3.L.c.2 .   . < a.R.4.% . . , d Q.U.v %         . .   O O ",
"    O       . +     . . . k D.D.k . X $ g U.E.z % +   % =.I.z.3 $ . , d.).9.< . . $ 3 g.W.%.% . . % v Q.j.d $ + .       . . O O ",
"    O     . .         . $ L D.N.s . + % m B.j.d $ O   % :.W.d., . $ 2 z.L.5.% . . $ g j.I.v $     % N ~.h.2 $ . .       .   O   ",
"    O           X     $ % w._.c.< . . % ;.C.h.2 .     , 6.R.3., $ % d K.m.-., + . % v Y.j.f .   X % >.^.d.< $ + O   X     .     ",
"      O     .     X   . , d.R.0., + . , 4.R.i.%   X . 2 n.(.B % . % x E.I.m % + + % %./.f.2 $     % 8.E.<., . O       X       O ",
"                      . 3 z.E.4.% O . < r._.<.% .   . d L.).h $ . $ &.R.T.g $ O   % ,./.q., .   . < s.W.D % . O   O X   .   .   ",
"                O   . $ g Q.U.%., . . 2 n.(.G % % $ % v D.P.3 . X $ 4.V.s.5 . O   % 6.R.2.2 % $ $ f B.R.l $ .   O         . .   ",
"                O O . % b Y.I.x % . . j m.N.M 2 , < s -.M.p.<     , 6.(.8.< $   . 5 c.x.-.3 < , 2 M D.C.5 . .   .     X       O ",
"          O     O O . % =.Y.K.g $ X . k B.S.9.2.q.2.,.K.W.>.%     < y._.2., . X . 4 m.F.p.,.q.q.8.s.G.6., .       O       X     ",
"  O   X O O . . .     , 8.^.l.2 . o $ k ~.b.F.S.S.H.L.E.l.k $ . . 5 /.).J % .   O 4 /.S.x.G.M.(.(.m.W.=.% .     O   .           ",
". .     @ O . .     X % w.k.P % . . . < 1.a.p.c.c.7.0.d.K % $ . . C f.k.f . . O + % >.9.s.s.7.c.7.a.J 2 $ . O O O     . .       ",
".       O   . .     O   < , $ . .   O . % % < , % , < % $ $ . . X . < < $ . X     $ % , , % < % , % $ $ . O O         .     O O ",
".       O       O O = O   + X O O O     O o     . X   . X     +     . .       X @       = O O           O O O             O O O ",
"X       O       O O O O t W E ! W p     + I _ 8   # ( W     X i ) 0 : ^ = i ~ 8   X ! t O u Q / E / Q + O O O         X     O O ",
"              O O + + } rXtXtXtXtX*X    $.tXeXO.  [ tXtX8 X : 0XtXQ oXtX: 1XrX*XX r rXX.R tXtXrXtXtX<X  + . . X   X       O   + ",
"    O O   .     + .   ,X8Xe ; > 7 ;   = 3XtXeX|.O |.tXeX! O XXtXtXt >X5X> 0XrXtX; ^ yXr #XwXp * > * *     o       X O       .   ",
". . O O             o 7X-X. e 9 w # . X.eX;XtXoX  %XtXtX[ + tXeX5X0 uX$Xr tXeXtX| $.wX> ,X,X. e 9 9 & X     X     O   O         ",
".   +             X 8 wX X&XrXwXwXi   6X1Xa wXOX. 1XyXwX].].wXqX>Xw tX+.` wX#XyX-X-X3X; rXOXOXtXtXrX~   X             O         ",
".       X       X   Y wX_ u i ;XwX. | yX.XT wX#XX tX*X1X1XyX+XqX+Xi tX_ [.7Xi 6XeX8X&Xr 0X..q p #XrXt     X     .   +           ",
"          X   O   X [.tXQ O + :X1XO 5XtX4X5XwX$Xe wX| *XtX9XR eX| | rXt $X7X  OXwXwX].( rX| O O %XuXO . + .                     ",
"    X       O   O   .XtXtXtXtXtX@XX.rX#.X y rX>X' rXE OXtX+.[ tXi $XrXq wX2XX U tXtX( X.wXtXwXtXtX<X+         .             .   ",
"O O O       O O +   : | { X.} O.a ) O.# X o } _ i $.# i @.+ r O.; _ { @ } I   O [ +.: + ^ ' X.X.} p X   X .   +                 ",
"          + +     . .   O O             O   O + +       +   X     + O O   +   O O O O X X X O   X X X X                         ",
"                X   . X + + X   X . . .   o   + . @   X     X   X . O O . X .   O O + . X   O # .         O O                 O ",
"            O                 X     .           O       X     X     O o     X       .   X     .             O                   ",
"                                                  O   X               O     X     O         o                                   ",
"                                    X           o     +               o               o                                         ",
"                                    O                     O                       X     o                                       ",
"                                o       o                                               o                                       ",
"                                        X       o     o     o       @         O     o O X                                       ",
"                                  o         + X   O +   X O               X                                                     ",
"                                      & # @ # # o ; r # w w # ; ; ; ; w : w ; ; #   & ; #                                       ",
"                                      ! ` _ _ _ ) r @.[. X@.[.}.}.}.@.|. .#.@.OXp i ` ! p                                       ",
"                                    X # - ; # ; * @ > w ; > t [ r w ; ; : # q | > ; - @ + X                                     ",
"                                        X           O         o   X     o     + X   O                                           ",
"                                                    .     O     +   X   X   .                                                   ",
"                                              O     X         O       +                                                         ",
"                                                        o               O                                                       ",
"                                      o                     o     O                                                             ",
"                                                    o                 o o                                                       ",
"                                                        o                   o                                                   "
};
