/* XPM */
static char *_39fdbd814e54a44ec5a2f4f9f92097bK2FPo8PZJk5mzkoQ[] = {
/* columns rows colors chars-per-pixel */
"64 64 102 2 ",
"   c #D68916",
".  c #D78E17",
"X  c #D88F16",
"o  c #D89017",
"O  c #D89317",
"+  c #D89018",
"@  c #D99318",
"#  c #D99418",
"$  c #D99618",
"%  c #D99718",
"&  c #D99619",
"*  c #D99819",
"=  c #D9981A",
"-  c #DA9B1B",
";  c #DB9B1B",
":  c #DB9D1A",
">  c #DB9D1B",
",  c #DCA61C",
"<  c #DDA81D",
"1  c #DDA91D",
"2  c #DDAA1D",
"3  c #DEAB1E",
"4  c #DEAC1E",
"5  c #DEAD1E",
"6  c #DEAE1E",
"7  c #DFAF1E",
"8  c #DFB01F",
"9  c #DFB21F",
"0  c #E0B31F",
"q  c #DA9329",
"w  c #DB9629",
"e  c #DA952A",
"r  c #DA962A",
"t  c #DB972A",
"y  c #DB9630",
"u  c #DB9730",
"i  c #DB9830",
"p  c #DB9831",
"a  c #DC9B30",
"s  c #DC9C31",
"d  c #DC9C32",
"f  c #DC9D32",
"g  c #E0B221",
"h  c #E0B622",
"j  c #E0B722",
"k  c #E1B723",
"l  c #E0B324",
"z  c #E1B625",
"x  c #E1B923",
"c  c #E1BA23",
"v  c #E1BB23",
"b  c #E2BA23",
"n  c #E2BC23",
"m  c #E2BB24",
"M  c #E2BD24",
"N  c #E2BF25",
"B  c #E3BF25",
"V  c #E2B629",
"C  c #E2BB29",
"Z  c #E3BF29",
"A  c #E3BF2A",
"S  c #E3BD2C",
"D  c #E4BF2E",
"F  c #E3B534",
"G  c #E4BE33",
"H  c #E4BC36",
"J  c #E5BF36",
"K  c #E6BE3D",
"L  c #E2C024",
"P  c #E3C024",
"I  c #E3C124",
"U  c #E3C224",
"Y  c #E3C325",
"T  c #E3C327",
"R  c #E3C426",
"E  c #E3C02A",
"W  c #E4C12A",
"Q  c #E4C52B",
"!  c #E4C02F",
"~  c #E4C12F",
"^  c #E5C62F",
"/  c #E4C230",
"(  c #E5C333",
")  c #E5C631",
"_  c #E5C335",
"`  c #E5C137",
"'  c #E5C236",
"]  c #E6C338",
"[  c #E6C43B",
"{  c #E6C13F",
"}  c #E7C33F",
"|  c #E7C43D",
" . c #E7C73D",
".. c #E7C83A",
"X. c #E7C93C",
"o. c #E8C93D",
"O. c #E8CA3F",
"+. c #DFA343",
"@. c #E8C742",
"#. c #E8CA41",
"$. c #E8C842",
"%. c #E9CB43",
/* pixels */
"X $ * : : : > : * * > > > > > : % * : : : > : : : : % % % % ; : : * $ ; ; : > > % % * % : % X - - % % : : : $ $ $ > : : : $ o p ",
"$ ] @.@.$.#.%.%.%.$.$.X.$.o.$.$. .@.{ [ o.o... .o. .....[ ` J J ` ` ( ` G G ` ) ( G ( D D D C V G E C V W W W M v M D B I I 0 p ",
"o $.o.! ! ^ ) ) ^ ^ ^ W W W Q ^ ^ I E A v E E Q Q ^ I I ^ R I E B x z M I M n x I I M n n v I x g n I n x n n U v v v B I I h s ",
"o { ) I x x I I I I Y I x n x n I I I B B z g B I I R I I I R I I I I x h x M n x h M x M v v B x x M I x x M U M M v v I I h s ",
"o { ! I I M x I A I M I Y U U n x x n I R I B h h x I I B I I I I R R I I M v v M M h M v M v v M v g I I n x x I I v v x I h s ",
"o } D n I I n x I I I M U U I I I I x h x n I I B x 0 x I I I I I I I I I I I z z v I M h h v I v v x g M R n g v I I v M h 9 s ",
"% K D x M I I I j v I I M I Y I I R I I n x g B I B I x h h n B I I E R I R B I I m h M I v g M B x v x h n I I h h M I x x 2 i ",
"% } C I M n I R I j z I I M M I I I x x x U B v 0 h B B I n x h z B I I I I I R I I v h M I I I I I v z x h I R M h x M I M 6 i ",
"* X.W j M M v I Y I M k M I I v I n x n x h h v n B x 0 z v I M M M h h v I I I I I I I h v I I R I I B x h x I I I M g M I g p ",
"* { ^ j k I M M I Y A I j v I M x x x x I I B h 0 x B M x v j v I I I M M h v m I I ! I I M h I I I I I b h h x I R R n g h 0 s ",
"* $.^ M c j I M M I I I I v v v I I x x x n I I n h h x U U I v h h M I I I M z x n I R I A M v M I I B I I h h M I I I I h , p ",
"%  .) I I k j I M v I I I I M z n R I n h h h x n n x h h x M M I M h h n I R I n x x n I I I I v M I I I I n h h M I E I I 6 p ",
"X { Q I I I j c I M j M I W U U x x n I B B h h x n n x c c j c M I I n z h x I R I I M h M Y I I B z M I I R M h h v I I R x u ",
"* } E R U W Y c M I I x M I I W R n h x I I B I x g x x k k v M x x I I I n h x x I I I M x h M I I v v x n I I h v h I I I h s ",
"%  .E x U U I I x j I I M j I I R I B x h B I I I n x h k k k M I M h B I I R I x x h n I I I M x M B I n x 0 B v v v v I Y h s ",
"%  .Q I n U W I I v j I I M j I I B I I B h h x I I I B c c v I I I B x x M I I I I x 0 h M I I n z v I I I B x z h M v v I h s ",
"o o.Q B I B B B I I I c v I v c v I I I I Y I v c c v I I I M v M I I I I c j M I I W I v g z v R I x x x I R I I I I I n x x s ",
"% ] Q I B I b I R I I N c c I I c M I I W I I I I v c k c v I I M c c M I I I c k I Y I I I v v h x R I n h n I E I R I I x 6 s ",
"%  .B B R B I B I I I R I c k c I I c M I I W Y Y I I I v c k c M M I v c c j c j v U I I I I I b x h B I I x x I I R I I I 6 u ",
"% } A m I I I B v v I E I E c c M I I c c N I I I Y W I I I I v c k j c M c M M I I U Y U W R I I I x h x n I I x x I I I I x p ",
"% [ I I n n I R R v v I I R R M j j I W N c c v I I W Y I I I Y I I I M M j c c M I I I I I I I I I R I n z h n I M v v I Y x d ",
"% ] ! I I n I I I I I v I I I I Y j j c I I c c M v U U I I I M M c I I E I I I M k c c M I I Y I R I I R I x x v I I v x I j d ",
"  H E n I I M I I Y I I c M I Y I I c k c I I I M k c M Y I j j M I M c c c I I R I I I M n x M B I I I I I I I z h v I I j 6 i ",
"X F z M M M I M N W I R I v v I W I I I k c I I I M M c c M I M v M I I I c c c c v M v M M n x n n x B I I E R I n j c I Y g i ",
"% ` z g x n M I M M I I Y I M c I I Y I I v c v Y I I I v j c M M M v v M I I I I I I I I n M M v v v v M M v M I I I M h M g p ",
"o [ U h g x M M I M M I I W I I j I Y I Y I v v c I R E I Y I M c k k c M M v v n n n I E I Y I B I M M h h v M v v M I I M 9 p ",
"+ ` A I j j j n M I I v M I I I I M v Y I Y R I c c v R I W W I I A I c j j c M B n x x n M M I I I I R I M v h M M M M n M 0 u ",
"$ J I I U x j x M M I I M c I Y I I M v W I I I I M c c I Y U I I I I I I I M j x x B I I I n n M I I I I I Y n h v M I I M 6 s ",
"$ ` A h I I M x z M x I I I M n I W I I v v I I I Y I M M M I I R I I R I W Y I I B x x v v I I M M M M I I I U I M v M n Y 0 s ",
"o J I M x I I M x h I x M I I M c v I I I I v v I I I R M v v M I R I I I I I R I R I I M z v v I I I M v M I Q A I I I x x h s ",
"% ( n M I M M I M j x I x M I Y Y v c I I E R I c M I I I W M M M I R I I I I I x x h B I I I M v h M I I v v M R I I I I I 2 i ",
"% ` I I x M M M M M x j I x M I I R I c v I I I I M M M I I I I c M M I R R I v h M B v z v M I I M h v M I I v h I Y I I I 0 s ",
"= ' I N I I v v c c k c c E v v I I I R M c v I R I I v v I W R I M c c I I I I k M R I I M c c v I I I v z n I n x x I I R h s ",
"= / R I I v I I c c c c j v I v M R I I W I v c I I I I I v v I I I I M k c I I I v M I I W I I M c j c M I x x n I n h x M h s ",
"= G E I I I N v I M c c I v v I M M R I Y I R A v M Y R I I v v I I E R I c c v I I v M R I E R I R I v v h v I n x x I M x 0 s ",
"= E I N I I R A M I I I c v c c I M v I I R I I I M j N R E I I c M I I A I M c k M I v c I R I R E I I I M v j x I n x M I 6 t ",
"= / A I M I I I I I M I Y v v v I I M M R I I R I E I k v R I I R M v I W I I Y M c v I M c M I I I v c k c M I n h M I v v g p ",
"= E R I I v I I Y I I M N I I I I R I M M I R I I I Y I v v I R I I M v v I I I I I k k M I c c I R I k M c v v I I x x I B 7 p ",
"$ G I I I R I M M I R I v W I I R E I R v M R I I I I R R v c N I R I R v v I I I R I M k v I v k c I M c M I M x M I M x I h p ",
"$ / I E I Y I E M v M I I I I M I I I I I c I I R R I I I E I c c I I R R I v M I R I I v k c I I c j c v c I I n x n I I x g s ",
"$ G I M I E I R I I M v M I I R I I W v M Y I I I I R I I W I I M c M I I I I v v Y I R I I c c I I I M x x x M I I x x I R 6 p ",
"$ A I I M I I I R I I E M j c M I I R I I Y Y W R I I R R I R I I I M c I I W I v v I I I R I c j I I I n x x x M R I M h n x s ",
"$ A v M I M M I Y R W R Y R I M c M M I I R I I I R R I I I R R I R I M c I I I I I v v R I R E v j v I Y I M h x n I I n x 6 i ",
"$ A M M M I I M v I Y I I I I I I v v v N I I R I R I I I R I I I I R E E v v I E R I M v I I I I v j M I Y I I x x x x h n 9 i ",
"+ A I M I M M M I v v I I I I I R I I v v v N I I I R R I I I R R I R I I W M v I R R I N c I I I I I z M I I R I h M h h x 6 s ",
"= W I A M I I v v I I v c I I R I R I R I N v v I I I I R R I I R I I R Y I R v c I E I I N v I I I I I n x I A I B v B x h 6 i ",
". A M I E v I I I v N I I I M M M I R I I R R I M v I I I I R I I I I I I I R R I c I I R R I v M I I R I x x I I I M v I M 2 t ",
"+ x M v I I I M I I c c I E E I M M v I I I I I I E v v I R I R I R R I I R I I I I c I I I I I M M I I I I M x I Q I M v M 6 u ",
"$ C M j m B I I I I I I M M M I I I I v M M I I I R I I v M I E R I R I I I I R I W I c I R I R I E M I I I I M c M Y I M c g d ",
"+ v I M m v x x I M M I I I M v M I I I I I v c I I I W I I v v M I I I R R I I Y I I I v I I I I I I M M I I Y I c M Y I I 6 d ",
"+ v M M B v B v v M I M M v I I M v M M E R I I v v N I I I I I M v v E I I R I I I I I I c E R I I I R I M M I I I c v I I g r ",
"+ v I M v B v B v v v M I I M I R I M M v v I R I I v v I E I I I I I v v I E I I R R I R v v I R R I I I W I M I I A v c I c p ",
"$ k v I I M B v v M M M M I I I I I R R I M v M I I I I v v v Y R I I I N v v I R E R I I R I M I I I c c M I M M v I I v c l d ",
"$ j M v I I v B M M M M M v M I R I I I R I I M v M I Y I I I v M I W R I R I v v I I R I Y I v M W I M M M c I R I M I I I g i ",
"+ j v I v v v v M v M M M M v v v I R E I R I Y I N v v M W Y I M v c N R I I R I v v I W I R I M M I I c I M c I I I M I Y j u ",
"+ j v v I v v v M M M v M M I M c c v M I I I I W Y Y I M v v I I Y I v v I I I I Y v v M I I I Y M M Y M c Y I v v I R v v j i ",
"+ h z v v I v M I I I M v v M I I M M c c c I I Y I I I A I I M M I I I I v v I I I R I I c M R I I n I R n M I I v M I I I g i ",
"o g x v v v v v v I I I M v v v M I I I M c j M M M I I Y I I I I v v I I I M v M I I I I E v c I Y I M I E M M E I M v I R k f ",
"$ h B v v B v M M M I M v M v v v v I I I I M M M M n n M I I I I R I M M I W I M v I I I I R I M M W Y n I I M I I I v j I g d ",
"o x v B v v M v M v I v M M I v v v j M I W I Y I M M I I M M I I I I E I M v I I M M M R I I I I M M I I x I I v I R I I j g d ",
"% x n U M M M I v B v I M M M I M M M j M n A U I I I M n U U M M U W n I I I v M I I M M U U U Y I I v I I M I U A U n Y I j u ",
"% n n x I B I v B v B v I I I M j j M I n x n U I Y R Y U n U I U M M U R R R I I n Y Y U M n U Y I Y W v I I M U U U U I Y j d ",
"o 2 6 2 2 2 6 2 4 4 2 2 2 4 6 2 1 , 1 , 6 6 2 , 6 1 g 9 6 6 1 2 6 6 6 1 1 1 j 6 9 1 2 6 6 g 6 2 6 g g 6 6 2 6 2 2 2 6 6 9 9 , i ",
"t w t t q t t t t t q t t r r t q t q q t t r t t r t t i r t w w t r r t t t t r r w w w t w t t r r r t r t w w t w w t r r +."
};
